<?xml version="1.0" encoding="utf-8"?>
<!-- Generator: Adobe Illustrator 16.0.0, SVG Export Plug-In . SVG Version: 6.00 Build 0)  -->
<!DOCTYPE svg PUBLIC "-//W3C//DTD SVG 1.1//EN" "http://www.w3.org/Graphics/SVG/1.1/DTD/svg11.dtd">
<svg version="1.1" id="Layer_1" xmlns="http://www.w3.org/2000/svg" xmlns:xlink="http://www.w3.org/1999/xlink" x="0px" y="0px"
	 width="283.46px" height="141.73px" viewBox="0 0 283.46 141.73" enable-background="new 0 0 283.46 141.73" xml:space="preserve">
<g display="none">
	<path display="inline" fill="#009688" d="M282.201,38.31c0,1.781-28.799,26.679-60.689,27.555
		c-31.892,4.141-66.875-15.739-79.246-28.133C129.753,25.333,94.187,8.997,61.75,17.204C29.312,22.069,0.001,51.479,0,53.387
		c2.699-4.244,28.794-35.204,58.7-44.721c29.906-12.152,63.623-2.863,81.564,12.541c10.948,7.596,46.432,32.625,79.179,33.837
		C252.191,59.664,282.201,40.466,282.201,38.31z"/>
</g>
<text transform="matrix(1 0 0 1 16.2563 56.9375)" display="none" fill="#414042" font-family="'Poppins-Medium'" font-size="51.5129">adver</text>
<text transform="matrix(1 0 0 1 227.2441 56.4551)" display="none" fill="#414042" font-family="'Poppins-Medium'" font-size="51.5129">a</text>
<text transform="matrix(1 0 0 1 168.1914 56.4551)" display="none" fill="#009688" font-family="'Poppins-Medium'" font-size="51.9426">s</text>
<text transform="matrix(1 0 0 1 196.5332 56.9375)" display="none" fill="#009688" font-family="'Poppins-Medium'" font-size="51.9426">e</text>
<g>
	<path fill="#009688" d="M219.454,25.853c0-0.693-8.037,9.68-21.029,13.792c-12.993,4.808-30.942,3.355-50.766-4.923
		c-19.824-8.278-37.773-14.165-50.766-13.792c-12.993-0.322-21.03,5.616-21.03,4.923c0,0.693,8.037-9.68,21.03-13.793
		c12.993-4.809,30.942-3.357,50.766,4.921c19.823,8.278,37.772,14.166,50.766,13.793C211.417,31.097,219.454,25.16,219.454,25.853z"
		/>
</g>
<g>
	<path fill="#009688" d="M209.667,48.939c0-0.693-8.035,9.676-21.026,13.789c-12.991,4.808-30.938,3.358-50.765-4.919
		c-19.826-8.278-37.774-14.163-50.766-13.79c-12.992-0.322-21.027,5.613-21.027,4.92c0,0.693,8.036-9.677,21.027-13.789
		c12.992-4.807,30.94-3.357,50.766,4.921c19.825,8.277,37.773,14.162,50.765,13.788C201.632,54.181,209.667,48.246,209.667,48.939z"
		/>
</g>
<g>
	<path fill="#414042" d="M12.282,96.176c1.313-2.436,3.103-4.33,5.368-5.682c2.265-1.352,4.768-2.027,7.509-2.027
		c2.474,0,4.634,0.486,6.481,1.457c1.846,0.971,3.321,2.18,4.426,3.625V88.98h6.566v31.463h-6.566v-4.682
		c-1.105,1.484-2.608,2.723-4.511,3.711c-1.904,0.99-4.074,1.484-6.51,1.484c-2.703,0-5.177-0.693-7.423-2.084
		c-2.247-1.389-4.026-3.33-5.339-5.824c-1.313-2.492-1.97-5.318-1.97-8.479S10.969,98.613,12.282,96.176z M34.723,99.031
		c-0.895-1.6-2.065-2.816-3.512-3.654c-1.447-0.838-3.007-1.258-4.682-1.258c-1.676,0-3.236,0.41-4.682,1.229
		c-1.447,0.818-2.618,2.018-3.512,3.598c-0.895,1.58-1.342,3.455-1.342,5.625s0.447,4.072,1.342,5.709
		c0.894,1.637,2.074,2.885,3.54,3.74c1.465,0.857,3.017,1.285,4.654,1.285c1.675,0,3.235-0.418,4.682-1.256
		c1.446-0.838,2.617-2.064,3.512-3.684c0.894-1.617,1.342-3.512,1.342-5.682S35.617,100.629,34.723,99.031z"/>
	<path fill="#414042" d="M50.997,96.176c1.313-2.436,3.103-4.33,5.368-5.682c2.265-1.352,4.787-2.027,7.566-2.027
		c2.056,0,4.083,0.447,6.082,1.342s3.587,2.084,4.768,3.568V78.189h6.566v42.254H74.78v-4.738c-1.066,1.521-2.541,2.779-4.426,3.768
		c-1.884,0.99-4.045,1.484-6.481,1.484c-2.741,0-5.244-0.693-7.509-2.084c-2.265-1.389-4.054-3.33-5.368-5.824
		c-1.313-2.492-1.97-5.318-1.97-8.479S49.684,98.613,50.997,96.176z M73.438,99.031c-0.895-1.6-2.065-2.816-3.512-3.654
		c-1.447-0.838-3.007-1.258-4.682-1.258c-1.676,0-3.236,0.41-4.682,1.229c-1.447,0.818-2.618,2.018-3.512,3.598
		c-0.895,1.58-1.342,3.455-1.342,5.625s0.447,4.072,1.342,5.709c0.894,1.637,2.074,2.885,3.54,3.74
		c1.465,0.857,3.017,1.285,4.654,1.285c1.675,0,3.235-0.418,4.682-1.256c1.446-0.838,2.617-2.064,3.512-3.684
		c0.894-1.617,1.342-3.512,1.342-5.682S74.332,100.629,73.438,99.031z"/>
	<path fill="#414042" d="M102.074,114.619l8.908-25.639h6.909l-11.991,31.463h-7.766L86.199,88.98h6.967L102.074,114.619z"/>
	<path fill="#414042" d="M151.408,107.139h-24.039c0.19,2.514,1.123,4.531,2.798,6.053c1.674,1.523,3.73,2.285,6.167,2.285
		c3.501,0,5.976-1.465,7.423-4.396h7.023c-0.953,2.893-2.676,5.262-5.168,7.107c-2.494,1.848-5.587,2.77-9.279,2.77
		c-3.008,0-5.702-0.674-8.08-2.027c-2.379-1.35-4.245-3.254-5.596-5.709c-1.352-2.455-2.027-5.301-2.027-8.537
		c0-3.234,0.657-6.082,1.97-8.537c1.313-2.455,3.16-4.348,5.539-5.682c2.378-1.332,5.111-1.998,8.194-1.998
		c2.969,0,5.614,0.648,7.937,1.941c2.321,1.295,4.13,3.111,5.424,5.453c1.295,2.342,1.941,5.035,1.941,8.08
		C151.637,105.121,151.561,106.188,151.408,107.139z M144.842,101.887c-0.037-2.398-0.895-4.32-2.569-5.768
		c-1.676-1.447-3.75-2.17-6.224-2.17c-2.247,0-4.168,0.713-5.768,2.141c-1.599,1.428-2.551,3.359-2.855,5.797H144.842z"/>
	<path fill="#414042" d="M168.34,89.809c1.578-0.895,3.453-1.342,5.623-1.342v6.738h-1.656c-2.551,0-4.482,0.648-5.795,1.941
		c-1.313,1.295-1.971,3.541-1.971,6.738v16.559h-6.51V88.98h6.51v4.568C165.492,91.949,166.76,90.703,168.34,89.809z"/>
</g>
<g>
	<path fill="#009688" d="M184.586,119.615c-1.961-0.893-3.512-2.111-4.654-3.654c-1.141-1.541-1.75-3.264-1.826-5.168h6.738
		c0.113,1.334,0.75,2.447,1.912,3.342c1.16,0.895,2.617,1.342,4.369,1.342c1.826,0,3.244-0.352,4.254-1.057
		c1.008-0.705,1.514-1.607,1.514-2.713c0-1.18-0.563-2.055-1.686-2.627c-1.123-0.57-2.902-1.199-5.34-1.883
		c-2.359-0.648-4.281-1.275-5.766-1.885s-2.77-1.543-3.855-2.799c-1.084-1.256-1.627-2.912-1.627-4.967
		c0-1.676,0.494-3.207,1.484-4.598c0.99-1.389,2.408-2.484,4.254-3.283s3.969-1.199,6.367-1.199c3.578,0,6.461,0.904,8.65,2.713
		s3.359,4.273,3.512,7.395h-6.51c-0.113-1.408-0.684-2.531-1.713-3.369c-1.027-0.838-2.418-1.256-4.168-1.256
		c-1.713,0-3.025,0.324-3.939,0.971s-1.371,1.504-1.371,2.568c0,0.838,0.305,1.543,0.914,2.113c0.607,0.57,1.352,1.02,2.227,1.342
		c0.875,0.324,2.17,0.734,3.883,1.229c2.285,0.609,4.158,1.227,5.625,1.855c1.465,0.629,2.73,1.551,3.797,2.77
		s1.617,2.836,1.656,4.854c0,1.789-0.496,3.389-1.484,4.797c-0.99,1.408-2.391,2.512-4.197,3.311
		c-1.809,0.801-3.932,1.199-6.367,1.199C188.764,120.957,186.547,120.51,184.586,119.615z"/>
	<path fill="#009688" d="M238.918,107.139h-24.039c0.189,2.514,1.121,4.531,2.797,6.053c1.676,1.523,3.73,2.285,6.168,2.285
		c3.502,0,5.977-1.465,7.424-4.396h7.023c-0.953,2.893-2.676,5.262-5.168,7.107c-2.494,1.848-5.588,2.77-9.279,2.77
		c-3.008,0-5.701-0.674-8.08-2.027c-2.379-1.35-4.246-3.254-5.596-5.709c-1.352-2.455-2.027-5.301-2.027-8.537
		c0-3.234,0.656-6.082,1.971-8.537c1.313-2.455,3.158-4.348,5.539-5.682c2.377-1.332,5.109-1.998,8.193-1.998
		c2.969,0,5.615,0.648,7.938,1.941c2.32,1.295,4.129,3.111,5.424,5.453c1.293,2.342,1.941,5.035,1.941,8.08
		C239.146,105.121,239.07,106.188,238.918,107.139z M232.352,101.887c-0.039-2.398-0.895-4.32-2.57-5.768
		c-1.674-1.447-3.75-2.17-6.223-2.17c-2.248,0-4.17,0.713-5.768,2.141c-1.6,1.428-2.551,3.359-2.855,5.797H232.352z"/>
</g>
<g>
	<path fill="#414042" d="M245.635,96.176c1.313-2.436,3.102-4.33,5.367-5.682c2.264-1.352,4.768-2.027,7.508-2.027
		c2.475,0,4.635,0.486,6.482,1.457c1.846,0.971,3.32,2.18,4.424,3.625V88.98h6.568v31.463h-6.568v-4.682
		c-1.104,1.484-2.607,2.723-4.51,3.711c-1.904,0.99-4.074,1.484-6.51,1.484c-2.703,0-5.178-0.693-7.424-2.084
		c-2.246-1.389-4.025-3.33-5.338-5.824c-1.314-2.492-1.971-5.318-1.971-8.479S244.32,98.613,245.635,96.176z M268.074,99.031
		c-0.895-1.6-2.064-2.816-3.512-3.654s-3.008-1.258-4.682-1.258c-1.676,0-3.236,0.41-4.682,1.229
		c-1.447,0.818-2.619,2.018-3.512,3.598c-0.896,1.58-1.342,3.455-1.342,5.625s0.445,4.072,1.342,5.709
		c0.893,1.637,2.074,2.885,3.539,3.74c1.465,0.857,3.018,1.285,4.654,1.285c1.674,0,3.234-0.418,4.682-1.256
		s2.617-2.064,3.512-3.684c0.895-1.617,1.342-3.512,1.342-5.682S268.969,100.629,268.074,99.031z"/>
</g>
</svg>
