<?xml version="1.0" encoding="utf-8"?>
<!-- Generator: Adobe Illustrator 16.0.0, SVG Export Plug-In . SVG Version: 6.00 Build 0)  -->
<!DOCTYPE svg PUBLIC "-//W3C//DTD SVG 1.1//EN" "http://www.w3.org/Graphics/SVG/1.1/DTD/svg11.dtd">
<svg version="1.1" id="Layer_1" xmlns="http://www.w3.org/2000/svg" xmlns:xlink="http://www.w3.org/1999/xlink" x="0px" y="0px"
	 width="70.87px" height="28.35px" viewBox="0 0 70.87 28.35" enable-background="new 0 0 70.87 28.35" xml:space="preserve">
<g>
	<path fill="#009789" d="M70.521,8.895c0-0.317-3.678,4.429-9.622,6.31c-5.945,2.199-14.157,1.535-23.227-2.252
		c-9.07-3.788-17.283-6.481-23.228-6.31C8.5,6.495,4.823,9.212,4.823,8.895c0,0.317,3.677-4.429,9.622-6.311
		c5.945-2.2,14.157-1.536,23.228,2.251c9.069,3.787,17.281,6.481,23.227,6.311C66.844,11.294,70.521,8.578,70.521,8.895z"/>
</g>
<g>
	<path fill="#009789" d="M66.043,19.458c0-0.317-3.676,4.427-9.62,6.308c-5.943,2.199-14.155,1.536-23.227-2.251
		c-9.071-3.787-17.283-6.479-23.227-6.308c-5.944-0.147-9.621,2.568-9.621,2.251c0,0.317,3.676-4.427,9.621-6.309
		c5.944-2.2,14.156-1.537,23.227,2.251c9.072,3.787,17.284,6.479,23.227,6.309C62.367,21.856,66.043,19.141,66.043,19.458z"/>
</g>
</svg>
