<?xml version="1.0" encoding="utf-8"?>
<!-- Generator: Adobe Illustrator 16.0.0, SVG Export Plug-In . SVG Version: 6.00 Build 0)  -->
<!DOCTYPE svg PUBLIC "-//W3C//DTD SVG 1.1//EN" "http://www.w3.org/Graphics/SVG/1.1/DTD/svg11.dtd">
<svg version="1.1" id="Layer_1" xmlns="http://www.w3.org/2000/svg" xmlns:xlink="http://www.w3.org/1999/xlink" x="0px" y="0px"
	 width="283.46px" height="141.73px" viewBox="0 0 283.46 141.73" enable-background="new 0 0 283.46 141.73" xml:space="preserve">
<g>
	<path fill="#009789" d="M221.052,24.305c0-0.717-8.322,10.023-21.773,14.281c-13.453,4.979-32.037,3.475-52.561-5.097
		c-20.526-8.572-39.11-14.668-52.563-14.282c-13.453-0.334-21.774,5.814-21.774,5.097c0,0.717,8.321-10.024,21.774-14.283
		c13.453-4.979,32.037-3.476,52.563,5.096c20.523,8.571,39.107,14.668,52.561,14.282C212.731,29.735,221.052,23.587,221.052,24.305z
		"/>
</g>
<g>
	<path fill="#009789" d="M210.917,48.209c0-0.717-8.318,10.017-21.77,14.273c-13.449,4.977-32.033,3.476-52.561-5.094
		c-20.527-8.569-39.111-14.661-52.563-14.274c-13.452-0.333-21.772,5.813-21.772,5.095c0,0.717,8.32-10.019,21.772-14.277
		c13.452-4.977,32.035-3.476,52.563,5.093c20.528,8.57,39.112,14.662,52.561,14.276C202.599,53.635,210.917,47.492,210.917,48.209z"
		/>
</g>
<text transform="matrix(1 0 0 1 2.3228 126.6123)" fill="#424143" font-family="'Poppins-Medium'" font-size="59.1223">adver</text>
<text transform="matrix(1 0 0 1 175.5762 126.6123)" fill="#009789" font-family="'Poppins-Medium'" font-size="59.1223">se</text>
<text transform="matrix(1 0 0 1 243.9297 126.6123)" fill="#424143" font-family="'Poppins-Medium'" font-size="59.1223">a</text>
</svg>
